<?xml version="1.0" encoding="UTF-8"?>
<!DOCTYPE svg PUBLIC "-//W3C//DTD SVG 1.1//EN" "http://www.w3.org/Graphics/SVG/1.1/DTD/svg11.dtd">
<!-- Creator: CorelDRAW 2018 (64 Bit Versão de avaliação) -->
<svg xmlns="http://www.w3.org/2000/svg" xml:space="preserve" preserveAspectRatio="xMidYMid"  version="1.1" style="shape-rendering:geometricPrecision; text-rendering:geometricPrecision; image-rendering:optimizeQuality; fill-rule:evenodd; clip-rule:evenodd"
viewBox="0 0 6.71 6.71"
 xmlns:xlink="http://www.w3.org/1999/xlink">
 <defs>
  <style type="text/css">
   <![CDATA[
    .fil0 {fill:#FEFEFE;fill-rule:nonzero}
   ]]>
  </style>
 </defs>
 <g id="Camada_x0020_1">
  <metadata id="CorelCorpID_0Corel-Layer"/>
  <g id="_2259192110384">
   <path class="fil0" d="M3.35 0c-0.91,0 -1.02,0 -1.38,0.02 -0.36,0.02 -0.6,0.07 -0.81,0.16 -0.22,0.09 -0.41,0.2 -0.59,0.39 -0.19,0.19 -0.3,0.37 -0.39,0.59 -0.08,0.21 -0.14,0.46 -0.16,0.81 -0.02,0.36 -0.02,0.47 -0.02,1.38 0,0.91 0,1.02 0.02,1.38 0.02,0.36 0.07,0.6 0.16,0.81 0.09,0.22 0.2,0.41 0.39,0.59 0.19,0.19 0.37,0.3 0.59,0.39 0.21,0.08 0.46,0.14 0.81,0.16 0.36,0.02 0.47,0.02 1.38,0.02 0.91,0 1.02,-0 1.38,-0.02 0.36,-0.02 0.6,-0.07 0.81,-0.16 0.22,-0.09 0.41,-0.2 0.59,-0.39 0.19,-0.19 0.3,-0.37 0.39,-0.59 0.08,-0.21 0.14,-0.46 0.16,-0.81 0.02,-0.36 0.02,-0.47 0.02,-1.38 0,-0.91 -0,-1.02 -0.02,-1.38 -0.02,-0.36 -0.07,-0.6 -0.16,-0.81 -0.09,-0.22 -0.2,-0.41 -0.39,-0.59 -0.19,-0.19 -0.37,-0.3 -0.59,-0.39 -0.21,-0.08 -0.46,-0.14 -0.81,-0.16 -0.36,-0.02 -0.47,-0.02 -1.38,-0.02zm0 0.6c0.9,0 1,0 1.36,0.02 0.33,0.02 0.5,0.07 0.62,0.12 0.16,0.06 0.27,0.13 0.39,0.25 0.12,0.12 0.19,0.23 0.25,0.39 0.05,0.12 0.1,0.3 0.12,0.62 0.02,0.35 0.02,0.46 0.02,1.36 0,0.9 -0,1 -0.02,1.36 -0.02,0.33 -0.07,0.5 -0.12,0.62 -0.06,0.16 -0.13,0.27 -0.25,0.39 -0.12,0.12 -0.23,0.19 -0.39,0.25 -0.12,0.05 -0.3,0.1 -0.62,0.12 -0.35,0.02 -0.46,0.02 -1.36,0.02 -0.9,0 -1,-0 -1.36,-0.02 -0.33,-0.01 -0.5,-0.07 -0.62,-0.12 -0.16,-0.06 -0.27,-0.13 -0.39,-0.25 -0.12,-0.12 -0.19,-0.23 -0.25,-0.39 -0.05,-0.12 -0.1,-0.3 -0.12,-0.62 -0.02,-0.35 -0.02,-0.46 -0.02,-1.36 0,-0.9 0,-1 0.02,-1.36 0.01,-0.33 0.07,-0.5 0.12,-0.62 0.06,-0.16 0.13,-0.27 0.25,-0.39 0.12,-0.12 0.23,-0.19 0.39,-0.25 0.12,-0.05 0.3,-0.1 0.62,-0.12 0.35,-0.02 0.46,-0.02 1.36,-0.02z"/>
   <path class="fil0" d="M3.35 4.47c-0.62,0 -1.12,-0.5 -1.12,-1.12 0,-0.62 0.5,-1.12 1.12,-1.12 0.62,0 1.12,0.5 1.12,1.12 0,0.62 -0.5,1.12 -1.12,1.12zm0 -2.84c-0.95,0 -1.72,0.77 -1.72,1.72 0,0.95 0.77,1.72 1.72,1.72 0.95,0 1.72,-0.77 1.72,-1.72 0,-0.95 -0.77,-1.72 -1.72,-1.72z"/>
   <path class="fil0" d="M5.55 1.56c0,0.22 -0.18,0.4 -0.4,0.4 -0.22,0 -0.4,-0.18 -0.4,-0.4 0,-0.22 0.18,-0.4 0.4,-0.4 0.22,0 0.4,0.18 0.4,0.4z"/>
  </g>
 </g>
</svg>
