<?xml version="1.0" encoding="UTF-8"?>
<!DOCTYPE svg PUBLIC "-//W3C//DTD SVG 1.1//EN" "http://www.w3.org/Graphics/SVG/1.1/DTD/svg11.dtd">
<!-- Creator: CorelDRAW 2018 (64 Bit Versão de avaliação) -->
<svg xmlns="http://www.w3.org/2000/svg" xml:space="preserve" version="1.1" style="shape-rendering:geometricPrecision; text-rendering:geometricPrecision; image-rendering:optimizeQuality; fill-rule:evenodd; clip-rule:evenodd"
viewBox="0 0 18.29 18.29"
 xmlns:xlink="http://www.w3.org/1999/xlink">
 <defs>
  <style type="text/css">
   <![CDATA[
    .fil0 {fill:#FEFEFE}
   ]]>
  </style>
 </defs>
 <g id="Camada_x0020_1">
  <metadata id="CorelCorpID_0Corel-Layer"/>
  <g id="_2295453141968">
   <path class="fil0" d="M9.31 16.4c-1.53,0 -2.96,-0.45 -4.15,-1.24l-2.9 0.92 0.94 -2.78c-0.9,-1.24 -1.44,-2.75 -1.44,-4.39 0,-0.24 0.01,-0.49 0.04,-0.73 0.37,-3.79 3.6,-6.76 7.51,-6.76 3.96,0 7.22,3.05 7.52,6.91 0.02,0.19 0.02,0.39 0.02,0.58 0,4.13 -3.39,7.49 -7.55,7.49zm8.97 -7.72c-0.12,-4.82 -4.09,-8.68 -8.97,-8.68 -4.83,0 -8.76,3.78 -8.97,8.52 -0,0.13 -0.01,0.26 -0.01,0.39 0,1.69 0.47,3.26 1.29,4.6l-1.62 4.78 4.97 -1.58c1.29,0.71 2.77,1.11 4.34,1.11 4.96,0 8.98,-3.99 8.98,-8.91 0,-0.08 0,-0.15 -0,-0.23z"/>
   <path class="fil0" d="M13.43 10.71c-0.22,-0.11 -1.3,-0.64 -1.51,-0.71 -0.2,-0.08 -0.35,-0.11 -0.5,0.11 -0.15,0.22 -0.57,0.71 -0.7,0.85 -0.13,0.15 -0.26,0.16 -0.48,0.06 -0.22,-0.11 -0.93,-0.34 -1.77,-1.08 -0.65,-0.58 -1.1,-1.29 -1.22,-1.51 -0.13,-0.22 -0.01,-0.34 0.1,-0.44 0.1,-0.1 0.22,-0.26 0.33,-0.38 0.03,-0.04 0.06,-0.07 0.08,-0.11 0.05,-0.08 0.09,-0.16 0.14,-0.26 0.08,-0.15 0.04,-0.27 -0.02,-0.38 -0.06,-0.11 -0.5,-1.19 -0.68,-1.62 -0.18,-0.44 -0.37,-0.36 -0.5,-0.36 -0.13,0 -0.27,-0.02 -0.42,-0.02 -0.15,0 -0.39,0.05 -0.59,0.27 -0.2,0.22 -0.77,0.75 -0.77,1.82 0,0.25 0.05,0.5 0.11,0.74 0.22,0.77 0.7,1.4 0.79,1.51 0.11,0.14 1.52,2.42 3.76,3.3 2.24,0.87 2.24,0.58 2.64,0.54 0.4,-0.03 1.3,-0.53 1.48,-1.04 0.19,-0.51 0.19,-0.95 0.13,-1.04 -0.05,-0.09 -0.2,-0.14 -0.42,-0.25z"/>
  </g>
 </g>
</svg>
